# xmcd CD database file
#
# Track frame offsets:
#	150
#	21162
#	40238
#	62573
#	81750
#	105025
#	120788
#	139408
#	160518
#	185738
#
# Disc length: 2967 seconds
#
# Revision: 0
# Processed by: cddbd v1.5.2PL0 Copyright (c) Steve Scherf et al.
# Submitted via: CDex 1.70beta2
#
DISCID=720b950a
DTITLE=The Weight - 10 Mile Grace
DYEAR=2006
DGENRE=Country
TTITLE0=Ten Mile Grace
TTITLE1=Ships
TTITLE2=Dragged Back In
TTITLE3=Ohio
TTITLE4=Hate Myself
TTITLE5=St. Paul
TTITLE6=Personal Slump
TTITLE7=Sanchez!
TTITLE8=Three Sixteen
TTITLE9=Streets Look Empty
EXTD=YEAR: 2006
EXTT0=
EXTT1=
EXTT2=
EXTT3=
EXTT4=
EXTT5=
EXTT6=
EXTT7=
EXTT8=
EXTT9=
PLAYORDER=
